# xmcd
#
# Track frame offsets:
#	150
#	13977
#	31930
#	45502
#	61227
#	76287
#	94662
#	110225
#	124872
#	146027
#	162395
#	174832
#	187257
#	210382
#	257500
#	269280
#
# Disc length: 3627 seconds
#
# Revision: 1
# Processed by: cddbd v1.5.2PL0 Copyright (c) Steve Scherf et al.
# Submitted via: EZCDAudioConverter 8.0.7.1
#
DISCID=de0e2910
DTITLE=Whiskeytown - Pneumonia
DYEAR=2001
DGENRE=Country
TTITLE0=The Ballad Of Carol Lynn
TTITLE1=Don't Wanna Know Why
TTITLE2=Jacksonville Skyline
TTITLE3=Reasons To Lie
TTITLE4=Don't Be Sad
TTITLE5=Sit and Listen To The Rain
TTITLE6=Under Your Breath
TTITLE7=Mirror, Mirror
TTITLE8=Paper Moon
TTITLE9=What The Devil Wanted
TTITLE10=Crazy About You
TTITLE11=My Hometown
TTITLE12=Easy Hearts
TTITLE13=Bar Lights
TTITLE14=Space
TTITLE15=Data
EXTD=
EXTT0=
EXTT1=
EXTT2=
EXTT3=
EXTT4=
EXTT5=
EXTT6=
EXTT7=
EXTT8=
EXTT9=
EXTT10=
EXTT11=
EXTT12=
EXTT13=
EXTT14=
EXTT15=
PLAYORDER=
